HIERARCHY
ROOT Hips
{
	OFFSET 0.000000 0.000000 0.000000
	CHANNELS 6 Xposition Yposition Zposition Zrotation Yrotation Xrotation 
	JOINT LHipJoint
	{
		OFFSET 0.000000 0.000000 0.000000
		CHANNELS 3 Zrotation Yrotation Xrotation
		JOINT LeftUpLeg
		{
			OFFSET 1.363060 -1.794630 0.839290
			CHANNELS 3 Zrotation Yrotation Xrotation
			JOINT LeftLeg
			{
				OFFSET 2.448110 -6.726130 0.000000
				CHANNELS 3 Zrotation Yrotation Xrotation
				JOINT LeftFoot
				{
					OFFSET 2.562200 -7.039590 0.000000
					CHANNELS 3 Zrotation Yrotation Xrotation
					JOINT LeftToeBase
					{
						OFFSET 0.157640 -0.433110 2.322550
						CHANNELS 3 Zrotation Yrotation Xrotation
						End Site
						{
							OFFSET 0.000000 0.000000 0.000000
						}
					}
				}
			}
		}
	}
	JOINT RHipJoint
	{
		OFFSET 0.000000 0.000000 0.000000
		CHANNELS 3 Zrotation Yrotation Xrotation
		JOINT RightUpLeg
		{
			OFFSET -1.305520 -1.794630 0.839290
			CHANNELS 3 Zrotation Yrotation Xrotation
			JOINT RightLeg
			{
				OFFSET -2.542530 -6.985550 0.000000
				CHANNELS 3 Zrotation Yrotation Xrotation
				JOINT RightFoot
				{
					OFFSET -2.568260 -7.056230 0.000000
					CHANNELS 3 Zrotation Yrotation Xrotation
					JOINT RightToeBase
					{
						OFFSET -0.164730 -0.452590 2.363150
						CHANNELS 3 Zrotation Yrotation Xrotation
						End Site
						{
							OFFSET 0.000000 0.000000 0.000000
						}
					}
				}
			}
		}
	}
	JOINT LowerBack
	{
		OFFSET 0.000000 0.000000 0.000000
		CHANNELS 3 Zrotation Yrotation Xrotation
		JOINT Spine
		{
			OFFSET 0.028270 2.035590 -0.193380
			CHANNELS 3 Zrotation Yrotation Xrotation
			JOINT Spine1
			{
				OFFSET 0.056720 2.048850 -0.042750
				CHANNELS 3 Zrotation Yrotation Xrotation
				JOINT Neck
				{
					OFFSET 0.000000 0.000000 0.000000
					CHANNELS 3 Zrotation Yrotation Xrotation
					JOINT Neck1
					{
						OFFSET -0.054170 1.746240 0.172020
						CHANNELS 3 Zrotation Yrotation Xrotation
						JOINT Head
						{
							OFFSET 0.104070 1.761360 -0.123970
							CHANNELS 3 Zrotation Yrotation Xrotation
							End Site
							{
								OFFSET 0.000000 0.000000 0.000000
							}
						}
					}
				}
				JOINT LeftShoulder
				{
					OFFSET 0.000000 0.000000 0.000000
					CHANNELS 3 Zrotation Yrotation Xrotation
					JOINT LeftArm
					{
						OFFSET 3.362410 1.200890 -0.311210
						CHANNELS 3 Zrotation Yrotation Xrotation
						JOINT LeftForeArm
						{
							OFFSET 4.983000 -0.000000 -0.000000
							CHANNELS 3 Zrotation Yrotation Xrotation
							JOINT LeftHand
							{
								OFFSET 3.483560 -0.000000 -0.000000
								CHANNELS 3 Zrotation Yrotation Xrotation
								JOINT LeftFingerBase
								{
									OFFSET 0.000000 0.000000 0.000000
									CHANNELS 3 Zrotation Yrotation Xrotation
									JOINT LeftHandIndex1
									{
										OFFSET 0.715260 -0.000000 -0.000000
										CHANNELS 3 Zrotation Yrotation Xrotation
										End Site
										{
											OFFSET 0.000000 0.000000 0.000000
										}
									}
								}
								JOINT LThumb
								{
									OFFSET 0.000000 0.000000 0.000000
									CHANNELS 3 Zrotation Yrotation Xrotation
									End Site
									{
										OFFSET 0.000000 0.000000 0.000000
									}
								}
							}
						}
					}
				}
				JOINT RightShoulder
				{
					OFFSET 0.000000 0.000000 0.000000
					CHANNELS 3 Zrotation Yrotation Xrotation
					JOINT RightArm
					{
						OFFSET -3.136600 1.374050 -0.404650
						CHANNELS 3 Zrotation Yrotation Xrotation
						JOINT RightForeArm
						{
							OFFSET -5.241900 -0.000000 -0.000000
							CHANNELS 3 Zrotation Yrotation Xrotation
							JOINT RightHand
							{
								OFFSET -3.444170 -0.000000 -0.000000
								CHANNELS 3 Zrotation Yrotation Xrotation
								JOINT RightFingerBase
								{
									OFFSET 0.000000 0.000000 0.000000
									CHANNELS 3 Zrotation Yrotation Xrotation
									JOINT RightHandIndex1
									{
										OFFSET -0.622530 -0.000000 -0.000000
										CHANNELS 3 Zrotation Yrotation Xrotation
										End Site
										{
											OFFSET 0.000000 0.000000 0.000000
										}
									}
								}
								JOINT RThumb
								{
									OFFSET 0.000000 0.000000 0.000000
									CHANNELS 3 Zrotation Yrotation Xrotation
									End Site
									{
										OFFSET 0.000000 0.000000 0.000000
									}
								}
							}
						}
					}
				}
			}
		}
	}
}
MOTION
Frames: 6
Frame Time: 0.008333
45.240650 17.469390 1.456415 -174.928567 -88.925823 172.433422 3.761061 1.175228 0.881507 -29.478746 -10.561414 14.021644 -1.801343 6.586625 20.437760 -3.892263 16.558670 -19.334864 0.274500 -3.369900 -9.310500 -7.360890 1.101791 -1.846699 28.539204 17.788207 -15.431092 -2.268791 -15.059827 37.605777 3.604408 -17.455282 -18.894002 -1.980100 8.824600 -25.248100 -2.131328 0.241489 6.131062 1.620537 0.682212 1.621865 -5.144733 -0.332154 4.607399 6.023826 0.377182 -4.977168 7.928450 -1.321013 17.847040 -2.336800 0.976500 7.108800 8.643706 3.522549 -1.451110 -99.200894 -5.132989 47.069703 18.928804 -24.762996 -8.641242 -1.440103 -3.732464 -7.382596 16.828460 2.685982 2.136000 -7.125000 0.000000 0.000000 -6.696400 36.550600 1.399200 -9.845835 -3.785785 0.417168 107.541778 0.000660 20.708758 -11.606426 17.090546 -2.790682 1.080799 2.215589 -14.760686 -14.321296 3.406694 -0.420100 7.125000 0.000000 0.000000 8.227300 -28.413500 3.353100 
45.048789 17.453508 1.414726 -160.473050 -88.561048 157.939642 3.841784 1.418212 0.985493 -28.749050 -9.589142 12.948622 -1.409550 7.391527 22.606551 -3.676298 15.875169 -18.901806 0.438800 -4.250500 -11.782500 -7.349988 1.345537 -1.991873 29.426666 17.429709 -14.484942 -2.266745 -14.918134 37.501856 3.553360 -17.304509 -18.953808 -1.881200 8.614000 -24.595200 -1.472204 0.333178 6.139694 1.633774 0.791296 1.629593 -5.362484 -0.190865 4.638014 6.125049 0.380825 -4.993339 7.817688 -1.303261 17.871293 -2.389300 0.983900 7.126200 8.619244 3.637249 -1.459182 -98.795924 -4.890144 47.110752 18.721088 -24.538046 -8.427201 -1.538996 -3.746396 -7.140194 17.305737 2.861622 2.270800 -7.125000 0.000000 0.000000 -6.246100 36.780800 1.268900 -9.839779 -3.766132 0.413736 107.545538 -0.032292 20.683505 -11.653077 17.205000 -2.823118 1.076527 2.232829 -14.800534 -14.368094 3.354998 -0.401700 7.125000 0.000000 0.000000 8.194800 -28.484400 3.325700 
44.855644 17.445568 1.371520 -147.965305 -88.080558 145.391159 4.074707 1.535301 0.982578 -28.031206 -8.610684 11.395502 -0.796121 8.532951 25.781820 -3.434971 15.131663 -18.388819 0.665400 -5.216600 -14.527500 -7.207658 1.523206 -2.069672 30.299251 16.961321 -13.567651 -2.217483 -14.739040 37.215387 3.509684 -17.160034 -18.959212 -1.820300 8.481200 -24.185500 -0.669763 0.440394 6.177758 1.650656 0.932054 1.638688 -5.591095 -0.045000 4.665452 6.236665 0.376934 -4.991741 7.727084 -1.300291 17.875358 -2.434700 0.982900 7.125200 8.580536 3.735426 -1.463329 -98.344083 -4.612754 47.058324 18.454597 -24.229728 -8.141792 -1.669740 -3.782074 -6.876864 17.965859 3.169033 2.493900 -7.125000 0.000000 0.000000 -5.628600 37.186500 1.086300 -9.824164 -3.761448 0.409781 107.556964 -0.034107 20.680382 -11.695024 17.295660 -2.847553 1.075506 2.251246 -14.824383 -14.446806 3.282259 -0.377800 7.125000 0.000000 0.000000 8.137100 -28.578000 3.283600 
44.661915 17.444867 1.327262 -140.014734 -87.610004 137.401635 4.305690 1.535746 0.902937 -27.297648 -7.606378 9.797818 -0.086203 9.652805 29.028166 -3.340094 14.599788 -17.159528 0.922400 -6.118700 -17.129300 -7.082011 1.575739 -2.086861 31.131827 16.410349 -12.711328 -2.152258 -14.561412 36.877999 3.449798 -16.957644 -18.950637 -1.806200 8.450200 -24.090000 0.094007 0.552774 6.243528 1.671427 1.092899 1.650747 -5.817875 0.090415 4.691557 6.341120 0.365739 -4.972485 7.670816 -1.312384 17.859649 -2.461700 0.972400 7.105300 8.525766 3.806021 -1.461785 -97.859802 -4.306410 46.862889 18.137188 -23.845798 -7.795856 -1.833406 -3.823959 -6.587017 18.781685 3.527573 2.776700 -7.125000 0.000000 0.000000 -4.853200 37.669000 0.878300 -9.798326 -3.775957 0.406104 107.579468 0.010432 20.694072 -11.727287 17.346750 -2.858592 1.079305 2.270625 -14.789548 -14.569498 3.173717 -0.343800 7.125000 0.000000 0.000000 8.045800 -28.710200 3.220600 
44.467601 17.449888 1.282888 -136.222772 -87.150669 133.556889 4.513309 1.435814 0.760941 -26.630802 -6.722186 7.930627 0.818896 10.917917 32.824573 -3.312601 14.155353 -15.349964 1.157400 -6.830200 -19.213200 -7.002901 1.551140 -2.068164 31.921773 15.803325 -11.818365 -2.061690 -14.348131 36.422421 3.394915 -16.751991 -18.886404 -1.854400 8.556000 -24.415900 0.756819 0.693735 6.346155 1.688765 1.295410 1.667093 -6.038671 0.237969 4.714219 6.423665 0.342385 -4.936905 7.650206 -1.345067 17.835495 -2.465000 0.950300 7.072200 8.454935 3.862972 -1.457871 -97.357106 -3.959491 46.480518 17.783776 -23.405742 -7.409100 -2.019356 -3.865805 -6.271205 19.688122 3.909973 3.103200 -7.125000 0.000000 0.000000 -3.978300 38.191800 0.668200 -9.762062 -3.796899 0.404364 107.609287 0.121710 20.714078 -11.739488 17.340005 -2.850314 1.087965 2.286423 -14.673432 -14.717697 3.039336 -0.302700 7.125000 0.000000 0.000000 7.935700 -28.867000 3.145900 
44.272471 17.459347 1.238864 -134.472471 -86.685453 131.730846 4.719250 1.287591 0.581360 -26.008726 -6.057721 5.843381 1.921873 12.273248 37.074213 -3.335860 13.784901 -12.872821 1.296800 -7.214900 -20.353600 -6.950635 1.493458 -2.031848 32.698049 15.170930 -10.849748 -1.948876 -14.097377 35.858936 3.350489 -16.581369 -18.837295 -1.955200 8.772200 -25.085200 1.365357 0.859568 6.494052 1.702465 1.531268 1.686793 -6.259777 0.401640 4.729503 6.496878 0.313732 -4.901565 7.651964 -1.389118 17.816588 -2.453200 0.923200 7.041000 8.371661 3.917149 -1.455091 -96.846535 -3.560580 45.891661 17.408817 -22.930976 -7.003464 -2.197783 -3.920792 -5.929020 20.553928 4.403877 3.495700 -7.125000 0.000000 0.000000 -3.148800 38.856800 0.477100 -9.714633 -3.815542 0.404373 107.640362 0.308096 20.728048 -11.726256 17.268513 -2.821261 1.100056 2.292844 -14.471895 -14.858854 2.902742 -0.262300 7.125000 0.000000 0.000000 7.832000 -29.018300 3.075700 
